<svg xmlns="http://www.w3.org/2000/svg" fill="none" viewBox="0 0 128 128"><g id="star__star" clip-path="url(#star__clip0_1949_866)"><g id="star__Star"><path id="star__Star_2" fill="url(#star__paint0_linear_1949_866)" stroke="#fde68a" d="M61.622 36.936c.749-2.304 4.007-2.304 4.756 0l4.556 14.021a3.5 3.5 0 0 0 3.328 2.418h14.743c2.422 0 3.428 3.099 1.47 4.523l-11.928 8.666a3.5 3.5 0 0 0-1.272 3.913l4.557 14.021c.748 2.303-1.888 4.218-3.848 2.795l-11.926-8.666a3.5 3.5 0 0 0-4.116 0l-11.926 8.666c-1.96 1.423-4.596-.492-3.848-2.795l4.557-14.021a3.5 3.5 0 0 0-1.272-3.913l-11.928-8.666c-1.958-1.424-.952-4.523 1.47-4.523h14.743a3.5 3.5 0 0 0 3.328-2.418z"/><animate attributeName="opacity" begin="0s" calcMode="spline" dur="2s" keySplines=".42 0 .58 1; .42 0 .58 1" repeatCount="indefinite" values="1;0.3;1"/></g></g><defs><linearGradient id="star__paint0_linear_1949_866" x1="64" x2="64" y1="36" y2="83.5" gradientUnits="userSpaceOnUse"><stop stop-color="#fef3c7"/><stop offset="1" stop-color="#fde68a"/></linearGradient><clipPath id="star__clip0_1949_866"><rect width="128" height="128" fill="#fff"/></clipPath></defs></svg>